<svg width="32" height="32" viewBox="0 0 32 32" fill="none" xmlns="http://www.w3.org/2000/svg">
<g filter="url(#filter0_d_8_2)">
<path d="M12.4617 9.50766L6.5372 10.6926C5.10808 10.9784 5.10808 13.0216 6.53721 13.3074L12.4617 14.4923C12.9895 14.5979 13.4021 15.0105 13.5077 15.5383L14.6926 21.4628C14.9784 22.8919 17.0216 22.8919 17.3074 21.4628L18.4923 15.5383C18.5979 15.0105 19.0105 14.5979 19.5383 14.4923L25.4628 13.3074C26.8919 13.0216 26.8919 10.9784 25.4628 10.6926L19.5383 9.50766C19.0105 9.4021 18.5979 8.98952 18.4923 8.46171L17.3074 2.5372C17.0216 1.10808 14.9784 1.10808 14.6926 2.53721L13.5077 8.46171C13.4021 8.98952 12.9895 9.4021 12.4617 9.50766Z" stroke="white" stroke-width="2" stroke-linejoin="round" shape-rendering="crispEdges"/>
<path d="M9.53209 20.9358L10.2111 19.5777C10.7842 18.4316 9.56836 17.2158 8.42229 17.7889L7.06419 18.4679C6.80615 18.5969 6.59692 18.8062 6.46791 19.0642L5.78886 20.4223C5.21582 21.5684 6.43164 22.7842 7.57771 22.2111L8.93581 21.5321C9.19385 21.4031 9.40308 21.1938 9.53209 20.9358Z" stroke="white" stroke-width="2" stroke-linejoin="round" shape-rendering="crispEdges"/>
<path d="M24.9358 18.4679L23.5777 17.7889C22.4316 17.2158 21.2158 18.4316 21.7889 19.5777L22.4679 20.9358C22.5969 21.1938 22.8062 21.4031 23.0642 21.5321L24.4223 22.2111C25.5684 22.7842 26.7842 21.5684 26.2111 20.4223L25.5321 19.0642C25.4031 18.8062 25.1938 18.5969 24.9358 18.4679Z" stroke="white" stroke-width="2" stroke-linejoin="round" shape-rendering="crispEdges"/>
<path d="M7.06419 5.53209L8.42229 6.21115C9.56837 6.78418 10.7842 5.56836 10.2111 4.42229L9.53209 3.06419C9.40308 2.80615 9.19385 2.59692 8.93581 2.46791L7.57771 1.78886C6.43164 1.21582 5.21582 2.43164 5.78886 3.57771L6.46791 4.93581C6.59692 5.19385 6.80615 5.40308 7.06419 5.53209Z" stroke="white" stroke-width="2" stroke-linejoin="round" shape-rendering="crispEdges"/>
<path d="M24.9358 5.53209L23.5777 6.21115C22.4316 6.78418 21.2158 5.56836 21.7889 4.42229L22.4679 3.06419C22.5969 2.80615 22.8062 2.59692 23.0642 2.46791L24.4223 1.78886C25.5684 1.21582 26.7842 2.43164 26.2111 3.57771L25.5321 4.93581C25.4031 5.19385 25.1938 5.40308 24.9358 5.53209Z" stroke="white" stroke-width="2" stroke-linejoin="round" shape-rendering="crispEdges"/>
</g>
<defs>
<filter id="filter0_d_8_2" x="0.465363" y="0.465363" width="31.0693" height="31.0693" filterUnits="userSpaceOnUse" color-interpolation-filters="sRGB">
<feFlood flood-opacity="0" result="BackgroundImageFix"/>
<feColorMatrix in="SourceAlpha" type="matrix" values="0 0 0 0 0 0 0 0 0 0 0 0 0 0 0 0 0 0 127 0" result="hardAlpha"/>
<feOffset dy="4"/>
<feGaussianBlur stdDeviation="2"/>
<feComposite in2="hardAlpha" operator="out"/>
<feColorMatrix type="matrix" values="0 0 0 0 0 0 0 0 0 0 0 0 0 0 0 0 0 0 0.25 0"/>
<feBlend mode="normal" in2="BackgroundImageFix" result="effect1_dropShadow_8_2"/>
<feBlend mode="normal" in="SourceGraphic" in2="effect1_dropShadow_8_2" result="shape"/>
</filter>
</defs>
</svg>
